<?xml version="1.0" encoding="UTF-8" standalone="no"?>
<!-- Created with Inkscape (http://www.inkscape.org/) -->

<svg
   width="210mm"
   height="297mm"
   viewBox="0 0 210 297"
   version="1.1"
   id="svg1"
   xml:space="preserve"
   inkscape:version="1.3.1 (91b66b0783, 2023-11-16)"
   sodipodi:docname="placeholder_r.svg"
   xmlns:inkscape="http://www.inkscape.org/namespaces/inkscape"
   xmlns:sodipodi="http://sodipodi.sourceforge.net/DTD/sodipodi-0.dtd"
   xmlns="http://www.w3.org/2000/svg"
   xmlns:svg="http://www.w3.org/2000/svg"><sodipodi:namedview
     id="namedview1"
     pagecolor="#ffffff"
     bordercolor="#000000"
     borderopacity="0.25"
     inkscape:showpageshadow="2"
     inkscape:pageopacity="0.0"
     inkscape:pagecheckerboard="0"
     inkscape:deskcolor="#d1d1d1"
     inkscape:document-units="mm"
     inkscape:zoom="0.69219276"
     inkscape:cx="397.28818"
     inkscape:cy="546.813"
     inkscape:window-width="1902"
     inkscape:window-height="973"
     inkscape:window-x="-8"
     inkscape:window-y="0"
     inkscape:window-maximized="0"
     inkscape:current-layer="layer1" /><defs
     id="defs1" /><g
     inkscape:groupmode="layer"
     id="layer2"
     inkscape:label="Layer 0"><g
       inkscape:label="Layer 1"
       inkscape:groupmode="layer"
       id="layer1"><path
         style="display:inline;fill:#acacac;stroke:none"
         d="m 83.686923,4.312225 v 0.1985109 l 1.272183,0.1985109 v 0.198511 c -3.519489,0.00909 -5.548267,1.2270261 -8.693253,2.2435222 -1.762698,0.5697253 -3.55993,0.5674717 -5.300764,1.3296742 v 0.1985109 l 2.332336,-0.3970219 v 0.198511 c -2.058084,0.5548709 -5.736653,1.9506508 -6.784978,3.7717068 l 2.544367,-0.794043 v 0.198511 c -1.888229,0.559669 -3.965641,1.923728 -5.190983,3.374831 -4.026368,4.768163 -8.052891,13.767962 -6.498347,19.850945 0.377958,1.47897 0.321825,5.107561 1.723894,5.955328 l 0.21203,1.191065 -0.21203,-0.794044 0.264384,3.374686 1.643891,9.925546 c 3.327646,-2.581563 1.07739,-6.411404 1.060314,-9.727035 -0.01955,-3.79657 -0.321462,-8.514281 1.139179,-12.109166 0.745828,-1.835596 2.305781,-3.610732 3.575233,-5.161283 1.204895,-1.4717 2.559056,-3.177411 4.402741,-3.986309 2.758894,-1.210427 6.98417,-0.07854 9.92944,-0.01469 3.856881,0.08363 7.848159,0.259867 11.697677,0.01301 3.69551,-0.236967 8.008293,-0.774052 11.661683,-0.196524 2.9038,0.459033 6.60131,2.42037 7.60987,5.177059 0.41541,1.135453 0.0232,2.57914 0.0232,3.771707 0,2.546014 0.10229,5.018871 0.48459,7.543415 0.52591,3.472826 2.88582,6.030302 3.42112,9.528524 0.26692,1.744264 0.44476,3.596847 0.31593,5.359794 -0.035,0.478806 -0.4509,1.642368 0.14707,1.950191 0.6169,0.317564 1.40581,-0.623836 1.78017,-0.950584 1.27973,-1.116915 3.5171,-1.874319 3.89803,-3.581024 1.64888,-7.387625 3.44634,-14.458534 3.09898,-22.033936 h 0.21203 l 0.42406,1.786599 h 0.21203 l -1.06015,-5.359795 h 0.21203 l 0.84812,0.992555 c -0.95536,-5.033483 -6.06448,-11.171934 -10.60152,-13.80293 -1.80444,-1.046375 -3.87359,-1.21302 -5.71321,-2.116376 -1.33701,-0.656525 -1.98769,-4.8606334 -4.0402,-3.9317855 h -0.21203 l -2.7564,-1.7865982 -0.63609,0.1985109 C 101.09225,4.5481264 95.854958,4.0900392 94.07642,4.5107359 L 94.924542,4.9077578 90.047839,4.5949916 83.686923,4.312225 m 17.598537,0.1985109 0.21203,0.1985109 -0.21203,-0.1985109 M 95.136573,5.172447 c 0.163986,0 0.03394,0.098795 -0.07068,0.066154 l 0.07068,-0.066154 m 8.057157,0.5293544 0.21203,0.1985109 -0.21203,-0.1985109 m -0.42406,0.5955327 -0.21203,0.1985109 0.21203,-0.1985109 m 13.78199,70.4713749 v 0.595532 h 0.21203 l -0.21203,-0.595532 m -1.41354,3.904039 0.0707,0.132357 -0.0707,-0.132357 M 70.541028,105.55279 c -3.262972,1.60907 -5.890545,4.04762 -8.905284,6.01077 -3.374989,2.19775 -7.140527,3.98087 -10.605455,5.97693 -2.830652,1.63068 -6.385156,2.26465 -9.325417,3.8244 -8.986177,4.767 -15.478207,11.77577 -18.43897,21.11093 -2.315382,7.3003 -2.127995,14.90396 -2.127995,22.43173 0,3.27089 0.598027,7.13709 -0.21203,10.32257 l 9.965436,3.73908 4.084044,1.28603 0.750939,2.71682 0.889842,6.94788 h 0.212031 v 0.19851 h -0.212031 l 0.636092,3.97022 h -0.212031 l -0.424061,-0.39703 1.729129,20.64514 1.44822,13.10172 -2.772266,49.82624 -1.465236,19.85109 H 158.74574 c -0.79056,-5.03053 -3.03196,-10.15415 -4.41991,-15.08683 -3.41036,-12.12014 -6.9326,-24.90454 -6.60257,-37.51856 0.0937,-3.58107 1.20613,-7.23916 2.02722,-10.71959 1.61967,-6.86552 3.64954,-13.62814 5.47025,-20.44663 0.72166,-2.70257 1.89431,-5.56954 2.2129,-8.33745 0.25209,-2.19012 -1.46053,-5.0925 -2.21945,-7.1464 -1.74768,-4.72984 -3.05456,-9.58138 -4.05982,-14.49129 -0.33739,-1.64792 -1.36039,-4.29348 -1.01549,-5.93679 0.1759,-0.83809 1.35709,-1.30692 2.03392,-1.74954 2.03192,-1.32875 4.17029,-2.58235 6.36092,-3.67245 8.80063,-4.37936 18.92271,-8.09421 29.04819,-8.09529 -0.4247,-2.55848 -2.0646,-4.96023 -2.62895,-7.54342 -1.81176,-8.29277 -4.28873,-16.82189 -8.34429,-24.41684 -1.91707,-3.59012 -4.35176,-7.37696 -7.89748,-9.76977 -3.13526,-2.1158 -7.27568,-2.86606 -11.02559,-3.41328 -1.27792,-0.1865 -2.8375,0.16001 -4.02858,-0.34327 l -17.38651,-8.30988 c -3.01341,-0.67012 -5.88343,-2.56971 -8.48122,-4.08464 -0.93436,-0.54489 -2.43034,-1.88369 -3.60452,-1.68887 -1.25615,0.20842 -2.56528,1.4494 -3.60452,2.09799 -2.27273,1.41843 -4.63046,2.74081 -6.99701,4.01618 -7.66194,4.12913 -17.326722,9.45333 -26.503818,9.17929 -5.877954,-0.17553 -14.293583,-3.16919 -16.457067,-8.72591 -0.744605,-1.91244 -0.249373,-3.43343 -0.08132,-5.35979 m 69.333995,2.97766 0.63609,0.59554 -0.63609,-0.59554 m 3.88722,0.52937 0.0707,0.13233 -0.0707,-0.13233 m -10.24814,1.45574 1.69625,0.39702 -1.69625,-0.39702 m 3.60452,0 v 0 m 2.61504,0.13235 0.0707,0.13233 -0.0707,-0.13233 m -0.2827,0.46319 v 0 m -103.682947,12.10916 0.212031,0.19851 -0.212031,-0.19851 m 0,0.79404 0.212031,0.19852 -0.212031,-0.19852 m 127.642397,164.16853 0.21203,0.19851 -0.21203,-0.19851 m 1.48422,0 v 0.39702 h 0.42406 v -0.39702 h -0.42406 m -2.61504,0.86022 0.14134,0.0661 -0.14134,-0.0661 m 0.0707,0.72787 0.21203,0.19851 -0.21203,-0.19851 m -0.63609,0.39702 0.21203,0.19851 z"
         id="path2"
         sodipodi:nodetypes="ccccsccccccccscccccsssscsssssssscscccccccssccccccccccccccccccccccccccccsssssccccccccccccccccsssssssssscssssccsssssscccccccccccccccccccccccccccccccccccccccc" /><path
         style="display:inline;fill:none;stroke:#bbbbbb;stroke-width:0.264583;stroke-opacity:1"
         d="m 116.50307,56.833153 6.49807,-4.586872 3.44015,1.146717 -1.52895,0.38224 c 11.83499,-4.59137 -8.71629,23.271652 -6.11583,18.729731 3.06314,-9.476511 -1.8041,5.507774 -11.84942,16.054054 -10.957509,6.880308 -11.212337,4.586871 -16.818516,6.880307 0,0 -3.960111,3.791196 -15.289575,-4.969111 C 63.509535,81.709911 62.607338,69.829293 62.607338,69.829293 l -2.293434,-3.057916 -3.440155,-8.791507 -0.382241,-5.733589 2.293437,-3.057914 3.057914,5.351351"
         id="path5"
         sodipodi:nodetypes="ccccccczcccccc" /><path
         style="fill:#000000"
         id="path1" /><path
         style="fill:#ececec;stroke-width:0.264583"
         d="m 187.29729,164.36293 c 11.84943,11.46718 11.84943,69.18533 11.84943,69.18533 l 0.76448,17.96525 c 0,0 -3.03337,-17.48694 -0.76449,-1.14672 2.68926,19.36776 -6.49806,42.8108 -6.49806,42.8108 h -26.75676 -1.14672 c 0,0 2.33962,-30.05013 2.29344,-45.10423 -0.10256,-33.43328 10.37278,-5.24447 3.05791,-17.58302 -8.55983,-14.43852 -23.97044,-45.73251 -19.87645,-53.51351 5.96611,-11.33913 37.07722,-12.6139 37.07722,-12.6139 z"
         id="path3"
         sodipodi:nodetypes="ccsscccsssc" /><path
         style="fill:#ececec;stroke-width:0.264583"
         d="m 20.640926,175.06563 c 0,0 -4.769761,24.10448 -2.675675,35.93051 1.936342,10.93519 1.744777,-19.6824 -8.7915059,32.1081 -1.0743617,5.28096 -1.911197,16.05406 -1.911197,16.05406 v 21.78763 11.84944 l 17.2007719,0.38222 c 0,0 9.383046,-22.49509 11.467181,-34.40153 3.346003,-19.11535 -0.329332,-16.62902 1.14672,-23.3166 4.100623,-18.57879 2.675676,-6.11583 2.675676,-6.11583 l -3.057917,-38.60618 -1.911197,-10.7027 z"
         id="path4"
         sodipodi:nodetypes="cssccccsscccc" /><path
         id="path6"
         style="fill:#ececec;stroke:none;stroke-width:0.264583;stroke-opacity:1"
         d="M 116.14123 76.595841 C 113.96629 80.320507 110.88978 85.006397 107.02706 89.061747 C 96.06954 95.942048 95.814621 93.648514 90.208447 95.941947 C 90.208447 95.941947 86.248394 99.733041 74.918941 90.972742 C 74.55735 90.693147 74.20695 90.410195 73.866292 90.124731 C 73.585 90.278462 73.007947 90.590853 73.007947 90.590853 L 71.096436 105.49795 C 71.096436 105.49795 64.353512 116.20427 87.150753 120.02316 C 100.48397 122.25668 124.22756 103.58696 124.22756 103.58696 C 124.22756 103.58696 121.15281 105.24547 116.20066 76.829936 C 116.18627 76.747396 116.16187 76.67331 116.14123 76.595841 z " /></g></g></svg>
