<?xml version="1.0" encoding="UTF-8" standalone="no"?>
<!-- Created with Inkscape (http://www.inkscape.org/) -->

<svg
   width="210mm"
   height="297mm"
   viewBox="0 0 210 297"
   version="1.1"
   id="svg1"
   xml:space="preserve"
   inkscape:version="1.3.2 (091e20e, 2023-11-25, custom)"
   sodipodi:docname="placeholder_l.svg"
   xmlns:inkscape="http://www.inkscape.org/namespaces/inkscape"
   xmlns:sodipodi="http://sodipodi.sourceforge.net/DTD/sodipodi-0.dtd"
   xmlns="http://www.w3.org/2000/svg"
   xmlns:svg="http://www.w3.org/2000/svg">
  <sodipodi:namedview
   id="namedview1"
   pagecolor="#ffffff"
   bordercolor="#000000"
   borderopacity="0.25"
   inkscape:showpageshadow="2"
   inkscape:pageopacity="0.0"
   inkscape:pagecheckerboard="0"
   inkscape:deskcolor="#d1d1d1"
   inkscape:document-units="mm"
   inkscape:zoom="0.69219277"
   inkscape:cx="-299.77199"
   inkscape:cy="132.18861"
   inkscape:window-width="1920"
   inkscape:window-height="1017"
   inkscape:window-x="-8"
   inkscape:window-y="-8"
   inkscape:window-maximized="1"
   inkscape:current-layer="g1"
   showgrid="false" />
  <defs
   id="defs1">
    <inkscape:path-effect
   effect="spiro"
   id="path-effect7"
   is_visible="true"
   lpeversion="1" />
  </defs>
  <g
   inkscape:groupmode="layer"
   id="layer2"
   inkscape:label="Layer 0">
    <g
   inkscape:label="Layer 1"
   inkscape:groupmode="layer"
   id="layer1">
      <g
   id="g1"
   transform="matrix(-1,0,0,1,207.17375,0)">
        <path
   style="display:inline;fill:#acacac;stroke:none"
   d="m 83.686923,4.312225 v 0.1985109 l 1.272183,0.1985109 v 0.198511 c -3.519489,0.00909 -5.548267,1.2270261 -8.693253,2.2435222 -1.762698,0.5697253 -3.55993,0.5674717 -5.300764,1.3296742 v 0.1985109 l 2.332336,-0.3970219 v 0.198511 c -2.058084,0.5548709 -5.736653,1.9506508 -6.784978,3.7717068 l 2.544367,-0.794043 v 0.198511 c -1.888229,0.559669 -3.965641,1.923728 -5.190983,3.374831 -4.026368,4.768163 -8.052891,13.767962 -6.498347,19.850945 0.377958,1.47897 0.321825,5.107561 1.723894,5.955328 l 0.21203,1.191065 -0.21203,-0.794044 0.264384,3.374686 1.643891,9.925546 c 3.327646,-2.581563 1.07739,-6.411404 1.060314,-9.727035 -0.01955,-3.79657 -0.321462,-8.514281 1.139179,-12.109166 0.745828,-1.835596 2.305781,-3.610732 3.575233,-5.161283 1.204895,-1.4717 2.559056,-3.177411 4.402741,-3.986309 2.758894,-1.210427 6.98417,-0.07854 9.92944,-0.01469 3.856881,0.08363 7.848159,0.259867 11.697677,0.01301 3.69551,-0.236967 8.008293,-0.774052 11.661683,-0.196524 2.9038,0.459033 6.60131,2.42037 7.60987,5.177059 0.41541,1.135453 0.0232,2.57914 0.0232,3.771707 0,2.546014 0.10229,5.018871 0.48459,7.543415 0.52591,3.472826 2.88582,6.030302 3.42112,9.528524 0.26692,1.744264 0.44476,3.596847 0.31593,5.359794 -0.035,0.478806 -0.4509,1.642368 0.14707,1.950191 0.6169,0.317564 1.40581,-0.623836 1.78017,-0.950584 1.27973,-1.116915 3.5171,-1.874319 3.89803,-3.581024 1.64888,-7.387625 3.44634,-14.458534 3.09898,-22.033936 h 0.21203 l 0.42406,1.786599 h 0.21203 l -1.06015,-5.359795 h 0.21203 l 0.84812,0.992555 c -0.95536,-5.033483 -6.06448,-11.171934 -10.60152,-13.80293 -1.80444,-1.046375 -3.87359,-1.21302 -5.71321,-2.116376 -1.33701,-0.656525 -1.98769,-4.8606334 -4.0402,-3.9317855 h -0.21203 l -2.7564,-1.7865982 -0.63609,0.1985109 C 101.09225,4.5481264 95.854958,4.0900392 94.07642,4.5107359 L 94.924542,4.9077578 90.047839,4.5949916 83.686923,4.312225 m 17.598537,0.1985109 0.21203,0.1985109 -0.21203,-0.1985109 M 95.136573,5.172447 c 0.163986,0 0.03394,0.098795 -0.07068,0.066154 l 0.07068,-0.066154 m 8.057157,0.5293544 0.21203,0.1985109 -0.21203,-0.1985109 m -0.42406,0.5955327 -0.21203,0.1985109 0.21203,-0.1985109 m 13.78199,70.4713749 v 0.595532 h 0.21203 l -0.21203,-0.595532 m -1.41354,3.904039 0.0707,0.132357 -0.0707,-0.132357 M 70.541028,105.55279 c -3.262972,1.60907 -5.890545,4.04762 -8.905284,6.01077 -3.374989,2.19775 -7.140527,3.98087 -10.605455,5.97693 -2.830652,1.63068 -6.385156,2.26465 -9.325417,3.8244 -8.986177,4.767 -15.478207,11.77577 -18.43897,21.11093 -2.315382,7.3003 -2.127995,14.90396 -2.127995,22.43173 0,3.27089 0.598027,7.13709 -0.21203,10.32257 l 9.965436,3.73908 4.084044,1.28603 0.750939,2.71682 0.889842,6.94788 h 0.212031 v 0.19851 h -0.212031 l 0.636092,3.97022 h -0.212031 l -0.424061,-0.39703 1.729129,20.64514 1.44822,13.10172 -2.772266,49.82624 -1.465236,19.85109 H 158.74574 c -0.79056,-5.03053 -3.03196,-10.15415 -4.41991,-15.08683 -3.41036,-12.12014 -6.9326,-24.90454 -6.60257,-37.51856 0.0937,-3.58107 1.20613,-7.23916 2.02722,-10.71959 1.61967,-6.86552 3.64954,-13.62814 5.47025,-20.44663 0.72166,-2.70257 1.89431,-5.56954 2.2129,-8.33745 0.25209,-2.19012 -1.46053,-5.0925 -2.21945,-7.1464 -1.74768,-4.72984 -3.05456,-9.58138 -4.05982,-14.49129 -0.33739,-1.64792 -1.36039,-4.29348 -1.01549,-5.93679 0.1759,-0.83809 1.35709,-1.30692 2.03392,-1.74954 2.03192,-1.32875 4.17029,-2.58235 6.36092,-3.67245 8.80063,-4.37936 18.92271,-8.09421 29.04819,-8.09529 -0.4247,-2.55848 -2.0646,-4.96023 -2.62895,-7.54342 -1.81176,-8.29277 -4.28873,-16.82189 -8.34429,-24.41684 -1.91707,-3.59012 -4.35176,-7.37696 -7.89748,-9.76977 -3.13526,-2.1158 -7.27568,-2.86606 -11.02559,-3.41328 -1.27792,-0.1865 -2.8375,0.16001 -4.02858,-0.34327 l -17.38651,-8.30988 c -3.01341,-0.67012 -5.88343,-2.56971 -8.48122,-4.08464 -0.93436,-0.54489 -2.43034,-1.88369 -3.60452,-1.68887 -1.25615,0.20842 -2.56528,1.4494 -3.60452,2.09799 -2.27273,1.41843 -4.63046,2.74081 -6.99701,4.01618 -7.66194,4.12913 -17.326722,9.45333 -26.503818,9.17929 -5.877954,-0.17553 -14.293583,-3.16919 -16.457067,-8.72591 -0.744605,-1.91244 -0.249373,-3.43343 -0.08132,-5.35979 m 69.333995,2.97766 0.63609,0.59554 -0.63609,-0.59554 m 3.88722,0.52937 0.0707,0.13233 -0.0707,-0.13233 m -10.24814,1.45574 1.69625,0.39702 -1.69625,-0.39702 m 3.60452,0 v 0 m 2.61504,0.13235 0.0707,0.13233 -0.0707,-0.13233 m -0.2827,0.46319 v 0 m -103.682947,12.10916 0.212031,0.19851 -0.212031,-0.19851 m 0,0.79404 0.212031,0.19852 -0.212031,-0.19852 m 127.642397,164.16853 0.21203,0.19851 -0.21203,-0.19851 m 1.48422,0 v 0.39702 h 0.42406 v -0.39702 h -0.42406 m -2.61504,0.86022 0.14134,0.0661 -0.14134,-0.0661 m 0.0707,0.72787 0.21203,0.19851 -0.21203,-0.19851 m -0.63609,0.39702 0.21203,0.19851 z"
   id="path2"
   sodipodi:nodetypes="ccccsccccccccscccccsssscsssssssscscccccccssccccccccccccccccccccccccccccsssssccccccccccccccccsssssssssscssssccsssssscccccccccccccccccccccccccccccccccccccccc" />
        <path
   id="path5"
   style="display:inline;fill:#fffffe;fill-opacity:1;stroke:#bbbbbb;stroke-width:0.264583;stroke-opacity:1"
   d="m 74.408378,22.973275 c -0.968889,-0.0043 -1.936943,0.09449 -2.850472,0.406176 -0.386989,0.132038 -0.76155,0.301661 -1.115177,0.506946 -1.198404,0.695688 -2.119299,1.774093 -3.007052,2.83807 -1.023635,1.226833 -2.037921,2.46452 -2.939355,3.783748 -0.547216,0.800838 -1.054403,1.63542 -1.419035,2.534213 -0.602036,1.483975 -0.798369,3.098433 -0.912089,4.695837 -0.09444,1.326585 -0.135479,2.656895 -0.134876,3.986837 7.67e-4,1.691797 0.06906,3.384383 0.236162,5.067907 0.119117,1.200099 0.288403,2.395148 0.506945,3.581177 -0.002,0.01667 -0.0027,0.03345 -0.0047,0.05013 l -2.550302,-1.044684 c -4.837283,-1.981504 -1.147069,6.30686 -1.147069,6.30686 1.494839,5.675583 2.531111,6.719065 3.536141,14.142841 0,0 0.901842,11.88082 12.231295,20.641118 11.329452,8.760298 15.289506,4.968689 15.289506,4.968689 5.606173,-2.293434 5.861113,1.01e-4 16.81861,-6.8802 10.08665,-9.655208 9.65458,-19.096176 11.61066,-21.787301 8.84856,-10.17432 4.78333,-22.778016 0.049,-15.058982 l -0.33548,0.29498 -1.88289,2.368408 c 5.3e-4,-0.01638 0.002,-0.03271 0.003,-0.04909 0.0363,-1.207124 -0.008,-2.41775 -0.16847,-3.614767 -0.16137,-1.206959 -0.44004,-2.399165 -0.84491,-3.547587 -0.25186,-0.714407 -0.55228,-1.410782 -0.8785,-2.094446 -0.43848,-0.918962 -0.92474,-1.818026 -1.28364,-2.77089 -0.52077,-1.382621 -0.76323,-2.854357 -0.91209,-4.324284 -0.14773,-1.458786 -0.20644,-2.925736 -0.20309,-4.39198 0.002,-0.879327 0.0262,-1.759386 0.10129,-2.635498 0.0502,-0.585121 0.12323,-1.176531 0.0341,-1.756999 -0.14204,-0.925073 -0.68477,-1.743011 -1.31775,-2.432409 -0.80823,-0.88027 -1.78255,-1.6018 -2.83807,-2.162142 -1.4119,-0.749533 -2.97176,-1.21309 -4.56096,-1.385445 -1.09837,-0.119122 -2.20661,-0.100424 -3.31091,-0.06718 -1.498713,0.04512 -2.996303,0.11733 -4.493268,0.202572 -0.968584,0.05515 -1.937073,0.11576 -2.905766,0.168982 -1.305325,0.07172 -2.611856,0.129868 -3.91914,0.134875 -1.475496,0.0057 -2.95062,-0.05635 -4.426087,-0.06718 -1.385615,-0.01017 -2.77275,0.02495 -4.155302,-0.0677 -1.649413,-0.110532 -3.283208,-0.402712 -4.933032,-0.506946 -0.321106,-0.02029 -0.643903,-0.03319 -0.966866,-0.03462 z"
   sodipodi:nodetypes="cssssssssccsccsccccccccssssscssssssscssscc" />
        <path
   style="fill:#000000"
   id="path1"
   d="" />
        <path
   style="fill:#ececec;stroke-width:0.264583"
   d="m 187.29729,164.36293 c 11.84943,11.46718 11.84943,69.18533 11.84943,69.18533 l 0.76448,17.96525 c 0,0 -3.03337,-17.48694 -0.76449,-1.14672 2.68926,19.36776 -6.49806,42.8108 -6.49806,42.8108 h -26.75676 -1.14672 c 0,0 2.33962,-30.05013 2.29344,-45.10423 -0.10256,-33.43328 10.37278,-5.24447 3.05791,-17.58302 -8.55983,-14.43852 -23.97044,-45.73251 -19.87645,-53.51351 5.96611,-11.33913 37.07722,-12.6139 37.07722,-12.6139 z"
   id="path3"
   sodipodi:nodetypes="ccsscccsssc" />
        <path
   style="fill:#ececec;stroke-width:0.264583"
   d="m 20.640926,175.06563 c 0,0 -4.769761,24.10448 -2.675675,35.93051 1.936342,10.93519 1.744777,-19.6824 -8.7915059,32.1081 -1.0743617,5.28096 -1.911197,16.05406 -1.911197,16.05406 v 21.78763 11.84944 l 17.2007719,0.38222 c 0,0 9.383046,-22.49509 11.467181,-34.40153 3.346003,-19.11535 -0.329332,-16.62902 1.14672,-23.3166 4.100623,-18.57879 2.675676,-6.11583 2.675676,-6.11583 l -3.057917,-38.60618 -1.911197,-10.7027 z"
   id="path4"
   sodipodi:nodetypes="cssccccsscccc" />
        <path
   id="path6"
   style="fill:#ececec;stroke:none;stroke-width:0.264583;stroke-opacity:1"
   d="m 116.14123,76.595841 c -2.17494,3.724666 -5.25145,8.410556 -9.11417,12.465906 -10.95752,6.880301 -11.212439,4.586767 -16.818613,6.8802 0,0 -3.960053,3.791094 -15.289506,-4.969205 -0.361591,-0.279595 -0.711991,-0.562547 -1.052649,-0.848011 -0.281292,0.153731 -0.858345,0.466122 -0.858345,0.466122 l -1.911511,14.907097 c 0,0 -6.742924,10.70632 16.054317,14.52521 13.333217,2.23352 37.076807,-16.4362 37.076807,-16.4362 0,0 -3.07475,1.65851 -8.0269,-26.757024 -0.0144,-0.08254 -0.0388,-0.156626 -0.0594,-0.234095 z" />
      </g>
    </g>
  </g>
</svg>
